<mxfile host="app.diagrams.net" agent="Mozilla/5.0 (Windows NT 10.0; Win64; x64) AppleWebKit/537.36 (KHTML, like Gecko) Chrome/128.0.0.0 Safari/537.36 Edg/128.0.0.0" version="24.7.12">
  <diagram name="Page-1" id="bFhdwcrHnx2u6vySeAPQ">
    <mxGraphModel dx="1472" dy="1099" grid="1" gridSize="10" guides="1" tooltips="1" connect="1" arrows="1" fold="1" page="1" pageScale="1" pageWidth="850" pageHeight="1100" math="0" shadow="0">
      <root>
        <mxCell id="0" />
        <mxCell id="1" parent="0" />
        <mxCell id="KSG41hr1A-D4UAttYeLq-2" value="" style="rounded=0;whiteSpace=wrap;html=1;" parent="1" vertex="1">
          <mxGeometry x="40" width="760" height="1090" as="geometry" />
        </mxCell>
        <mxCell id="bYLI6xXWlC7uCqnGdy9a-5" value="" style="rounded=0;whiteSpace=wrap;html=1;" parent="1" vertex="1">
          <mxGeometry x="40" y="810" width="380" height="200" as="geometry" />
        </mxCell>
        <mxCell id="KSG41hr1A-D4UAttYeLq-3" value="" style="rounded=0;whiteSpace=wrap;html=1;" parent="1" vertex="1">
          <mxGeometry x="40" width="760" height="210" as="geometry" />
        </mxCell>
        <mxCell id="KSG41hr1A-D4UAttYeLq-6" value="&lt;h1 style=&quot;margin-top: 0px;&quot;&gt;&lt;font style=&quot;font-size: 36px;&quot;&gt;Header and Logo&lt;/font&gt;&lt;/h1&gt;" style="text;html=1;whiteSpace=wrap;overflow=hidden;rounded=0;align=center;" parent="1" vertex="1">
          <mxGeometry x="40" width="760" height="210" as="geometry" />
        </mxCell>
        <mxCell id="KSG41hr1A-D4UAttYeLq-11" value="" style="rounded=0;whiteSpace=wrap;html=1;" parent="1" vertex="1">
          <mxGeometry x="40" y="1010" width="760" height="80" as="geometry" />
        </mxCell>
        <mxCell id="KSG41hr1A-D4UAttYeLq-13" value="&lt;h1 style=&quot;margin-top: 0px;&quot;&gt;&lt;font style=&quot;font-size: 18px;&quot;&gt;Footer&lt;/font&gt;&lt;/h1&gt;&lt;div&gt;&lt;font style=&quot;font-size: 14px;&quot;&gt;Business Contact Information&lt;/font&gt;&lt;/div&gt;" style="text;html=1;whiteSpace=wrap;overflow=hidden;rounded=0;align=center;" parent="1" vertex="1">
          <mxGeometry x="40" y="1010" width="760" height="80" as="geometry" />
        </mxCell>
        <mxCell id="bYLI6xXWlC7uCqnGdy9a-1" value="Photo" style="html=1;whiteSpace=wrap;strokeColor=none;fillColor=#0079D6;labelPosition=center;verticalLabelPosition=middle;verticalAlign=top;align=center;fontSize=12;outlineConnect=0;spacingTop=-6;fontColor=#FFFFFF;sketch=0;shape=mxgraph.sitemap.photo;" parent="1" vertex="1">
          <mxGeometry x="40" y="210" width="380" height="200" as="geometry" />
        </mxCell>
        <mxCell id="bYLI6xXWlC7uCqnGdy9a-2" value="Photo" style="html=1;whiteSpace=wrap;strokeColor=none;fillColor=#0079D6;labelPosition=center;verticalLabelPosition=middle;verticalAlign=top;align=center;fontSize=12;outlineConnect=0;spacingTop=-6;fontColor=#FFFFFF;sketch=0;shape=mxgraph.sitemap.photo;" parent="1" vertex="1">
          <mxGeometry x="420" y="810" width="380" height="200" as="geometry" />
        </mxCell>
        <mxCell id="bYLI6xXWlC7uCqnGdy9a-3" value="Photo" style="html=1;whiteSpace=wrap;strokeColor=none;fillColor=#0079D6;labelPosition=center;verticalLabelPosition=middle;verticalAlign=top;align=center;fontSize=12;outlineConnect=0;spacingTop=-6;fontColor=#FFFFFF;sketch=0;shape=mxgraph.sitemap.photo;" parent="1" vertex="1">
          <mxGeometry x="40" y="610" width="380" height="200" as="geometry" />
        </mxCell>
        <mxCell id="bYLI6xXWlC7uCqnGdy9a-4" value="Photo" style="html=1;whiteSpace=wrap;strokeColor=none;fillColor=#0079D6;labelPosition=center;verticalLabelPosition=middle;verticalAlign=top;align=center;fontSize=12;outlineConnect=0;spacingTop=-6;fontColor=#FFFFFF;sketch=0;shape=mxgraph.sitemap.photo;" parent="1" vertex="1">
          <mxGeometry x="420" y="410" width="380" height="200" as="geometry" />
        </mxCell>
        <mxCell id="bYLI6xXWlC7uCqnGdy9a-6" value="" style="rounded=0;whiteSpace=wrap;html=1;" parent="1" vertex="1">
          <mxGeometry x="420" y="210" width="380" height="200" as="geometry" />
        </mxCell>
        <mxCell id="bYLI6xXWlC7uCqnGdy9a-7" value="" style="rounded=0;whiteSpace=wrap;html=1;" parent="1" vertex="1">
          <mxGeometry x="40" y="410" width="380" height="200" as="geometry" />
        </mxCell>
        <mxCell id="bYLI6xXWlC7uCqnGdy9a-8" value="" style="rounded=0;whiteSpace=wrap;html=1;" parent="1" vertex="1">
          <mxGeometry x="420" y="610" width="380" height="200" as="geometry" />
        </mxCell>
        <mxCell id="KSG41hr1A-D4UAttYeLq-17" value="&lt;h1 style=&quot;margin-top: 0px;&quot;&gt;Business History/Background&lt;/h1&gt;" style="text;html=1;whiteSpace=wrap;overflow=hidden;rounded=0;align=center;" parent="1" vertex="1">
          <mxGeometry x="40" y="410" width="380" height="200" as="geometry" />
        </mxCell>
        <mxCell id="KSG41hr1A-D4UAttYeLq-15" value="&lt;h1 style=&quot;margin-top: 0px;&quot;&gt;Business Product Information&lt;/h1&gt;" style="text;html=1;whiteSpace=wrap;overflow=hidden;rounded=0;align=center;" parent="1" vertex="1">
          <mxGeometry x="40" y="810" width="380" height="200" as="geometry" />
        </mxCell>
        <mxCell id="KSG41hr1A-D4UAttYeLq-16" value="&lt;h1 style=&quot;margin-top: 0px;&quot;&gt;Business Products&lt;/h1&gt;" style="text;html=1;whiteSpace=wrap;overflow=hidden;rounded=0;align=center;" parent="1" vertex="1">
          <mxGeometry x="420" y="610" width="380" height="200" as="geometry" />
        </mxCell>
        <mxCell id="KSG41hr1A-D4UAttYeLq-14" value="&lt;h1 style=&quot;margin-top: 0px;&quot;&gt;Business Owner&#39;s Background &amp;amp; Mission Statement&lt;/h1&gt;" style="text;html=1;whiteSpace=wrap;overflow=hidden;rounded=0;align=center;" parent="1" vertex="1">
          <mxGeometry x="420" y="210" width="380" height="200" as="geometry" />
        </mxCell>
        <mxCell id="bYLI6xXWlC7uCqnGdy9a-9" value="Photo" style="html=1;whiteSpace=wrap;strokeColor=none;fillColor=#0079D6;labelPosition=center;verticalLabelPosition=middle;verticalAlign=top;align=center;fontSize=12;outlineConnect=0;spacingTop=-6;fontColor=#FFFFFF;sketch=0;shape=mxgraph.sitemap.photo;" parent="1" vertex="1">
          <mxGeometry x="40" y="50" width="620" height="160" as="geometry" />
        </mxCell>
        <mxCell id="bYLI6xXWlC7uCqnGdy9a-10" value="" style="shape=table;startSize=0;container=1;collapsible=0;childLayout=tableLayout;fontSize=11;fillColor=none;strokeColor=none;" parent="1" vertex="1">
          <mxGeometry x="650" width="150" height="210" as="geometry" />
        </mxCell>
        <mxCell id="bYLI6xXWlC7uCqnGdy9a-11" value="" style="shape=tableRow;horizontal=0;startSize=0;swimlaneHead=0;swimlaneBody=0;strokeColor=inherit;top=0;left=0;bottom=0;right=0;collapsible=0;dropTarget=0;fillColor=none;points=[[0,0.5],[1,0.5]];portConstraint=eastwest;fontSize=16;" parent="bYLI6xXWlC7uCqnGdy9a-10" vertex="1">
          <mxGeometry width="150" height="61" as="geometry" />
        </mxCell>
        <mxCell id="bYLI6xXWlC7uCqnGdy9a-12" value="Home" style="shape=partialRectangle;html=1;whiteSpace=wrap;connectable=0;strokeColor=inherit;overflow=hidden;fillColor=none;top=0;left=0;bottom=0;right=0;pointerEvents=1;fontSize=12;align=left;spacingLeft=5;" parent="bYLI6xXWlC7uCqnGdy9a-11" vertex="1">
          <mxGeometry width="150" height="61" as="geometry">
            <mxRectangle width="150" height="61" as="alternateBounds" />
          </mxGeometry>
        </mxCell>
        <mxCell id="bYLI6xXWlC7uCqnGdy9a-13" value="" style="shape=tableRow;horizontal=0;startSize=0;swimlaneHead=0;swimlaneBody=0;strokeColor=inherit;top=0;left=0;bottom=0;right=0;collapsible=0;dropTarget=0;fillColor=none;points=[[0,0.5],[1,0.5]];portConstraint=eastwest;fontSize=16;" parent="bYLI6xXWlC7uCqnGdy9a-10" vertex="1">
          <mxGeometry y="61" width="150" height="44" as="geometry" />
        </mxCell>
        <mxCell id="bYLI6xXWlC7uCqnGdy9a-14" value="Products" style="shape=partialRectangle;html=1;whiteSpace=wrap;connectable=0;strokeColor=inherit;overflow=hidden;fillColor=none;top=0;left=0;bottom=0;right=0;pointerEvents=1;fontSize=12;align=left;spacingLeft=5;" parent="bYLI6xXWlC7uCqnGdy9a-13" vertex="1">
          <mxGeometry width="150" height="44" as="geometry">
            <mxRectangle width="150" height="44" as="alternateBounds" />
          </mxGeometry>
        </mxCell>
        <mxCell id="bYLI6xXWlC7uCqnGdy9a-15" value="" style="shape=tableRow;horizontal=0;startSize=0;swimlaneHead=0;swimlaneBody=0;strokeColor=inherit;top=0;left=0;bottom=0;right=0;collapsible=0;dropTarget=0;fillColor=none;points=[[0,0.5],[1,0.5]];portConstraint=eastwest;fontSize=16;" parent="bYLI6xXWlC7uCqnGdy9a-10" vertex="1">
          <mxGeometry y="105" width="150" height="44" as="geometry" />
        </mxCell>
        <mxCell id="bYLI6xXWlC7uCqnGdy9a-16" value="Cart" style="shape=partialRectangle;html=1;whiteSpace=wrap;connectable=0;strokeColor=inherit;overflow=hidden;fillColor=none;top=0;left=0;bottom=0;right=0;pointerEvents=1;fontSize=12;align=left;spacingLeft=5;" parent="bYLI6xXWlC7uCqnGdy9a-15" vertex="1">
          <mxGeometry width="150" height="44" as="geometry">
            <mxRectangle width="150" height="44" as="alternateBounds" />
          </mxGeometry>
        </mxCell>
        <mxCell id="bYLI6xXWlC7uCqnGdy9a-17" style="shape=tableRow;horizontal=0;startSize=0;swimlaneHead=0;swimlaneBody=0;strokeColor=inherit;top=0;left=0;bottom=0;right=0;collapsible=0;dropTarget=0;fillColor=none;points=[[0,0.5],[1,0.5]];portConstraint=eastwest;fontSize=16;" parent="bYLI6xXWlC7uCqnGdy9a-10" vertex="1">
          <mxGeometry y="149" width="150" height="61" as="geometry" />
        </mxCell>
        <mxCell id="bYLI6xXWlC7uCqnGdy9a-18" value="Contact" style="shape=partialRectangle;html=1;whiteSpace=wrap;connectable=0;strokeColor=inherit;overflow=hidden;fillColor=none;top=0;left=0;bottom=0;right=0;pointerEvents=1;fontSize=12;align=left;spacingLeft=5;" parent="bYLI6xXWlC7uCqnGdy9a-17" vertex="1">
          <mxGeometry width="150" height="61" as="geometry">
            <mxRectangle width="150" height="61" as="alternateBounds" />
          </mxGeometry>
        </mxCell>
      </root>
    </mxGraphModel>
  </diagram>
</mxfile>
